<svg width="512" height="512" viewBox="0 0 512 512" fill="none" xmlns="http://www.w3.org/2000/svg">
  <rect width="512" height="512" rx="136" fill="#0C1523"/>
  <rect x="20" y="20" width="472" height="472" rx="116" stroke="rgba(168,193,225,0.16)" stroke-width="2"/>
  <g stroke="#F3F5F8" stroke-linecap="round" stroke-linejoin="round">
    <path d="M136 86V430L158 408V272C158 233 187 205 231 205H238C283 205 319 170 319 126C319 95 294 86 252 86H136Z" stroke-width="16"/>
    <path d="M185 135V364C194 346 208 336 228 336H240C272 336 296 311 296 281C296 250 271 227 240 227H209V135H185Z" stroke-width="13" opacity="0.86"/>
    <path d="M231 180V303C239 288 250 281 264 281C283 281 296 267 296 248C296 229 282 215 263 215H249V180H231Z" stroke-width="11" opacity="0.72"/>
  </g>
</svg>
